# This file uses centimeters as units for non-parametric coordinates.

mtllib diamond.mtl
g default
v 0.000000 -1.082986 0.000000
v -0.500000 0.000000 0.500000
v 0.500000 0.000000 0.500000
v 0.000000 1.082986 0.000000
v -0.500000 0.000000 -0.500000
v 0.500000 0.000000 -0.500000
vt 0.875000 0.000000
vt 1.000000 0.270746
vt 0.625000 0.000000
vt 0.375000 0.541493
vt 0.250000 0.270746
vt 0.500000 0.270746
vt 0.750000 0.270746
vt 0.750000 0.270746
vt 0.500000 0.270746
vt 0.125000 0.000000
vt 0.250000 0.270746
vt 0.875000 0.541493
vt 0.375000 0.000000
vt 0.000000 0.270746
vt 0.125000 0.541493
vt 0.625000 0.541493
vn 0.000000 -0.419169 0.907908
vn 0.000000 -0.419169 0.907908
vn 0.000000 -0.419169 0.907908
vn 0.000000 0.419169 0.907908
vn 0.000000 0.419169 0.907908
vn 0.000000 0.419169 0.907908
vn 0.000000 0.419169 -0.907908
vn 0.000000 0.419169 -0.907908
vn 0.000000 0.419169 -0.907908
vn 0.000000 -0.419169 -0.907908
vn 0.000000 -0.419169 -0.907908
vn 0.000000 -0.419169 -0.907908
vn 0.907908 -0.419169 0.000000
vn 0.907908 -0.419169 0.000000
vn 0.907908 -0.419169 0.000000
vn 0.907908 0.419169 0.000000
vn 0.907908 0.419169 0.000000
vn 0.907908 0.419169 0.000000
vn -0.907908 -0.419169 0.000000
vn -0.907908 -0.419169 0.000000
vn -0.907908 -0.419169 0.000000
vn -0.907908 0.419169 0.000000
vn -0.907908 0.419169 0.000000
vn -0.907908 0.419169 0.000000
s off
g pCube1
usemtl initialShadingGroup
f 1/10/1 3/11/2 2/14/3
f 2/14/4 3/11/5 4/15/6
f 4/4/7 6/5/8 5/6/9
f 5/6/10 6/5/11 1/13/12
f 1/3/13 6/7/14 3/9/15
f 3/9/16 6/7/17 4/16/18
f 1/1/19 2/2/20 5/8/21
f 5/8/22 2/2/23 4/12/24
